HIERARCHY
ROOT Hips
{
    OFFSET 0 0 0
    CHANNELS 6 Xposition Yposition Zposition Zrotation Yrotation Xrotation
    JOINT Chest
    {
        OFFSET 1.261052E-14 2.2 9.616505E-08
        CHANNELS 3 Zrotation Yrotation Xrotation
        JOINT Chest2
        {
            OFFSET 0 2.866667 0
            CHANNELS 3 Zrotation Yrotation Xrotation
            JOINT Neck
            {
                OFFSET 0 1.433333 0
                CHANNELS 3 Zrotation Yrotation Xrotation
                JOINT Head
                {
                    OFFSET -5.955877E-09 1.099063 -0.0454182
                    CHANNELS 3 Zrotation Yrotation Xrotation
                    End Site
                    {
                        OFFSET 1.742161E-07 0.215971 1.988305
                    }
                }
            }
            JOINT LeftCollar
            {
                OFFSET 0.6 0.333333 -7.86805E-08
                CHANNELS 3 Zrotation Yrotation Xrotation
                JOINT LeftShoulder
                {
                    OFFSET 1.399785 0.02316189 0.008118234
                    CHANNELS 3 Zrotation Yrotation Xrotation
                    JOINT LeftElbow
                    {
                        OFFSET 2.28797 0.1912422 -0.1364633
                        CHANNELS 3 Zrotation Yrotation Xrotation
                        JOINT LeftWrist
                        {
                            OFFSET 2.775776 0.232193 0.2848766
                            CHANNELS 3 Zrotation Yrotation Xrotation
                            End Site
                            {
                                OFFSET 0.9913487 0.0829258 0.1017416
                            }
                        }
                    }
                }
            }
            JOINT RightCollar
            {
                OFFSET -0.6 0.333333 7.86805E-08
                CHANNELS 3 Zrotation Yrotation Xrotation
                JOINT RightShoulder
                {
                    OFFSET -1.399785 0.02316189 0.008118574
                    CHANNELS 3 Zrotation Yrotation Xrotation
                    JOINT RightElbow
                    {
                        OFFSET -2.28797 0.1912422 -0.136463
                        CHANNELS 3 Zrotation Yrotation Xrotation
                        JOINT RightWrist
                        {
                            OFFSET -2.775776 0.232193 0.2848771
                            CHANNELS 3 Zrotation Yrotation Xrotation
                            End Site
                            {
                                OFFSET -0.9913487 0.0829258 0.1017418
                            }
                        }
                    }
                }
            }
        }
    }
    JOINT LeftHip
    {
        OFFSET 0.9032136 0.1000166 0.0003561888
        CHANNELS 3 Zrotation Yrotation Xrotation
        JOINT LeftKnee
        {
            OFFSET 0.09757304 -3.66482 0.4995777
            CHANNELS 3 Zrotation Yrotation Xrotation
            JOINT LeftAnkle
            {
                OFFSET 0.1137198 -4.272043 -0.4761516
                CHANNELS 3 Zrotation Yrotation Xrotation
                End Site
                {
                    OFFSET -1 0 8.754432E-08
                }
            }
        }
    }
    JOINT RightHip
    {
        OFFSET -0.9032136 0.1000166 0.0003564245
        CHANNELS 3 Zrotation Yrotation Xrotation
        JOINT RightKnee
        {
            OFFSET -0.09757292 -3.66482 0.4995777
            CHANNELS 3 Zrotation Yrotation Xrotation
            JOINT RightAnkle
            {
                OFFSET -0.1137199 -4.272043 -0.4761516
                CHANNELS 3 Zrotation Yrotation Xrotation
                End Site
                {
                    OFFSET -1 0 8.754432E-08
                }
            }
        }
    }
}
MOTION
Frames:    14
Frame Time:    0.016667
-0.7819409    8.454475    2.00911    174.9796    31.53663    178.271    -3.694736    3.267943    -3.623473    0.4956003    -0.5666555    -2.067531    -0.02113116    4.296264    2.039999    -0.604495    14.32179    8.108768    -1.988575    -7.826177    0.1196774    -19.05285    -36.55927    -10.76043    -0.4964654    -25.2693    2.25949    -1.351058E-07    -4.567938E-07    -5.983083E-07    4.902268    6.320662    0.145448    70.79272    5.971469    24.65457    135.0258    82.61723    140.0649    1.005807E-07    -2.053555E-07    -7.29348E-08    5.952253    22.63615    -6.795679    0.07772131    0.4817671    18.41034    -10.05898    -3.497338    -6.548769    -19.52928    13.72455    4.393472    -0.01389144    -0.2064708    7.779228    14.41288    7.357003    -9.662698
-0.7514658    8.446561    2.057341    175.0823    31.83811    178.2986    -3.336829    3.610494    -3.599736    0.6942775    -0.6449688    -2.067703    -0.01716637    4.40118    2.102637    -0.6079889    14.40112    8.346232    -2.042285    -7.81221    0.1172489    -18.30804    -38.76984    -9.969778    -0.3126062    -20.41067    1.781344    1.037345E-07    -7.079172E-08    5.887593E-08    4.93643    6.345569    0.1521737    71.02553    5.217258    24.6903    136.8318    82.32549    141.8867    -1.307863E-07    3.178985E-07    -3.886834E-07    6.407635    22.68252    -6.821872    0.07760236    0.4814053    18.39601    -10.42906    -3.221754    -6.349905    -19.26238    13.69234    4.853786    -0.008710194    -0.1638499    6.166421    14.25868    7.50059    -9.682539
-0.7181525    8.438094    2.105602    175.2586    32.06202    178.3634    -2.914426    3.82523    -3.56986    0.8948396    -0.7038301    -2.070285    -0.01310322    4.490746    2.166345    -0.6121771    14.49616    8.587435    -2.095928    -7.791729    0.1149413    -17.61962    -41.05665    -9.284041    -0.169386    -15.27818    1.307846    -2.57111E-07    -2.47853E-08    3.510672E-07    4.927119    6.360534    0.1569147    70.89101    4.806931    24.84592    139.2798    81.87738    144.3583    1.263252E-07    -1.170216E-07    -4.589831E-07    6.954106    22.82288    -6.846235    0.07757545    0.4813265    18.3929    -10.79623    -3.10692    -6.124282    -18.91876    13.72432    4.574994    -0.008463298    -0.1615385    6.079092    14.03056    7.706615    -10.1108
-0.6824354    8.429136    2.153661    175.4991    32.20395    178.4608    -2.43767    3.90636    -3.535856    1.095901    -0.7421387    -2.075067    -0.008926009    4.566175    2.231174    -0.6170526    14.60669    8.829371    -2.149613    -7.766893    0.1128601    -16.96798    -43.54837    -8.766558    -0.06514185    -9.664812    0.8155245    -5.34726E-08    3.72516E-08    8.199056E-07    4.889313    6.364717    0.1596383    70.48368    4.666817    25.08077    141.795    81.34112    146.9009    7.652877E-08    2.411133E-07    1.107003E-07    7.578621    23.04479    -6.869654    0.07759886    0.4813968    18.39566    -11.16008    -3.14472    -5.868152    -18.48747    13.81094    3.81182    -0.01136024    -0.1868936    7.037753    13.72927    7.903756    -10.78985
-0.6447387    8.419755    2.20127    175.7936    32.25931    178.5856    -1.9168    3.848018    -3.499887    1.296146    -0.7588281    -2.081907    -0.004627525    4.627448    2.296956    -0.6225463    14.7311    9.068917    -2.203367    -7.739839    0.1111307    -16.67696    -44.55406    -8.253843    -0.03010937    -6.680193    0.5609261    3.066271E-07    -2.871111E-08    -7.413377E-07    4.841135    6.35704    0.1604878    69.92005    4.697468    25.33386    143.9329    80.81115    149.0652    3.793652E-07    -1.601043E-07    1.313075E-07    8.268112    23.3359    -6.892912    0.07762074    0.4814624    18.39826    -11.52029    -3.326977    -5.57766    -17.9486    13.93569    3.058458    -0.01511195    -0.2152551    8.112468    13.38301    7.966953    -11.35271
-0.6054299    8.410012    2.248018    176.1292    32.28997    178.7263    -1.362933    3.710917    -3.461975    1.494624    -0.7630788    -2.090631    -0.0002550758    4.681158    2.3626    -0.6284342    14.86427    9.303293    -2.257118    -7.702438    0.1094731    -16.67792    -44.14231    -7.670837    -0.0256919    -6.194685    0.5198369    -1.922013E-07    5.663426E-08    -1.13071E-06    4.783571    6.348252    0.1603152    69.20544    4.907707    25.58275    145.7026    80.30959    150.8595    -1.785164E-07    5.005261E-07    9.489099E-08    9.013425    23.68322    -6.893622    0.07757863    0.4813375    18.3933    -11.88629    -3.583522    -5.269452    -17.31926    14.09558    2.300421    -0.01984842    -0.2463456    9.293786    12.98786    7.956451    -11.83977
-0.5648931    8.399966    2.293528    176.493    32.35939    178.8728    -0.7869793    3.557207    -3.420964    1.690417    -0.7643119    -2.101029    0.004128509    4.734128    2.426918    -0.6345083    15.00151    9.529813    -2.310677    -7.646368    0.1075438    -16.69528    -43.61238    -7.122254    -0.02271055    -5.842215    0.4900515    6.365286E-08    -1.186064E-07    -6.048322E-07    4.717594    6.349444    0.1599592    68.34501    5.305068    25.80344    147.117    79.85997    152.2955    2.383284E-07    -3.06468E-07    2.405426E-07    9.80699    24.07342    -6.847161    0.0774143    0.4808436    18.37376    -12.26757    -3.843364    -4.962306    -16.64088    14.28716    1.532667    -0.02547936    -0.278706    10.52771    12.56602    7.931601    -12.26189
-0.5235702    8.389674    2.337587    176.876    32.4655    179.0213    -0.1989606    3.383291    -3.377342    1.882309    -0.7618032    -2.112985    0.008431549    4.783128    2.488711    -0.6405734    15.13834    9.745928    -2.363797    -7.573442    0.1054254    -16.72973    -42.98729    -6.628384    -0.02079172    -5.603048    0.4698626    -1.473792E-07    2.156698E-07    4.738967E-08    4.646109    6.374288    0.159666    67.35632    6.040473    26.00434    147.8204    79.61794    153.0104    2.883175E-07    3.686681E-07    1.498071E-07    10.63803    24.49356    -6.751752    0.07709576    0.4798775    18.33554    -12.66272    -4.097058    -4.656782    -15.94616    14.50772    0.7723814    -0.03179218    -0.3108758    11.75919    12.14561    7.89186    -12.64831
-0.4819024    8.379182    2.379984    177.2687    32.60633    179.1678    0.3911183    3.185637    -3.33164    2.069078    -0.7548604    -2.126328    0.01255746    4.824881    2.546645    -0.6464354    15.27042    9.949119    -2.416093    -7.48553    0.1031655    -16.78284    -42.28444    -6.209302    -0.01974121    -5.467112    0.4583956    1.365052E-07    -2.338372E-07    -4.859343E-08    4.571519    6.43147    0.1595673    66.25842    7.201293    26.18067    147.6042    79.69372    152.7906    -1.195323E-07    -4.015759E-07    -9.021934E-08    11.49576    24.93073    -6.606036    0.07659215    0.4783548    18.2753    -13.07032    -4.335329    -4.354146    -15.24584    14.75511    0.02510184    -0.03872767    -0.3426051    12.97934    11.72964    7.840325    -13.06487
-0.4403294    8.368532    2.420502    177.6619    32.78    179.3081    0.9732941    2.96073    -3.284503    2.249577    -0.7427813    -2.141015    0.01637594    4.856093    2.599396    -0.6518966    15.39332    10.13696    -2.467314    -7.381499    0.100799    -16.84942    -41.49648    -5.893192    -0.01942963    -5.426324    0.4549556    9.22326E-08    1.433543E-07    1.008E-06    4.493736    6.514734    0.1595419    65.05689    8.696151    26.2918    146.5671    80.04042    151.7369    -4.395771E-08    -5.800502E-07    1.127332E-06    12.36919    25.37192    -6.409081    0.07588589    0.4762055    18.1903    -13.48886    -4.54877    -4.044479    -14.55073    15.02703    -0.7049314    -0.04622183    -0.373726    14.18165    11.32119    7.779442    -13.51353
-0.3992884    8.357756    2.458924    178.0461    32.98475    179.4381    1.537627    2.70517    -3.236668    2.422666    -0.7249027    -2.156968    0.01975389    4.873386    2.645525    -0.6567396    15.50222    10.30694    -2.517129    -7.261941    0.09836086    -16.93014    -40.62475    -5.702727    -0.0198489    -5.481569    0.4596157    4.134758E-08    -1.584161E-07    6.078923E-07    4.412712    6.617949    0.1594571    63.75311    10.43367    26.30281    144.6788    80.60735    149.8211    1.459083E-07    -4.094637E-07    2.703004E-07    13.24713    25.80418    -6.16041    0.07496137    0.4733731    18.07837    -13.91675    -4.728218    -3.723582    -13.87169    15.32133    -1.414631    -0.05420898    -0.4041005    15.36154    10.92332    7.711236    -13.95762
-0.3592128    8.346882    2.495023    178.4117    33.2189    179.5532    2.074216    2.415639    -3.188946    2.587282    -0.70057    -2.174269    0.02254436    4.873265    2.683592    -0.6607217    15.59162    10.45656    -2.565066    -7.128628    0.09592628    -17.0295    -39.6755    -5.657423    -0.0210803    -5.639961    0.4729776    1.997112E-07    -1.662789E-07    -3.696971E-07    4.328341    6.735216    0.1592011    62.34301    12.32538    26.18459    141.7995    81.34007    146.9055    -1.925328E-07    -1.525228E-07    -9.45813E-07    14.11804    26.21458    -5.859922    0.07380648    0.4698133    17.93778    -14.35228    -4.864774    -3.402298    -13.21966    15.63572    -2.101601    -0.06262458    -0.433646    16.51567    10.53894    7.638313    -14.3611
-0.320532    8.335928    2.52857    178.749    33.4809    179.6487    2.573196    2.088885    -3.14225    2.742396    -0.6691582    -2.193023    0.02458795    4.85204    2.712091    -0.663543    15.65493    10.583    -2.610711    -6.983422    0.09356873    -17.15309    -38.65059    -5.776563    -0.02333348    -5.917387    0.4964005    -4.61876E-08    1.002422E-07    -5.351403E-07    4.240409    6.860786    0.1586715    60.81689    14.28833    25.91299    137.671    82.17917    142.7337    -1.735894E-07    9.910732E-07    2.88718E-07    14.97003    26.59023    -5.508243    0.07242206    0.4655024    17.76768    -14.79361    -4.949751    -3.092322    -12.60569    15.96795    -2.764271    -0.07141037    -0.4623146    17.64207    10.17072    7.563987    -14.71143
-0.2836699    8.324909    2.559325    179.0481    33.76928    179.7195    3.024764    1.72183    -3.097595    2.887038    -0.6300689    -2.213474    0.02574036    4.805803    2.729517    -0.6648367    15.68396    10.6832    -2.65355    -6.831256    0.09140853    -17.30785    -37.55925    -6.007584    -0.02702648    -6.345301    0.5325752    2.42499E-08    -1.317126E-07    -9.746648E-07    4.148724    6.989285    0.1577749    59.16056    16.24585    25.46728    131.8946    83.05807    136.9088    8.614855E-08    1.639038E-07    2.077691E-06    15.79071    26.91828    -5.106448    0.07080909    0.4604272    17.56764    -15.2388    -4.97454    -2.805988    -12.04084    16.31579    -3.401323    -0.08050626    -0.4900621    18.73904    9.821054    7.492282    -15.02871
